<?xml version="1.0" standalone="no"?>
<!DOCTYPE svg PUBLIC "-//W3C//DTD SVG 20010904//EN"
 "http://www.w3.org/TR/2001/REC-SVG-20010904/DTD/svg10.dtd">
<svg version="1.0" xmlns="http://www.w3.org/2000/svg"
 width="512" height="512" viewBox="0 0 2048 2048"
 preserveAspectRatio="xMidYMid meet">

<g transform="translate(0.000000,2048.000000) scale(0.100000,-0.100000)"
fill="#cc0000" stroke="none">
<path d="M5640 15208 c0 -7 -1 -1842 -2 -4078 l-3 -4065 495 -6 c272 -4 506
-9 520 -12 14 -3 81 -8 150 -11 599 -31 1524 -175 2065 -322 351 -96 455 -128
690 -217 183 -69 463 -190 580 -252 l105 -55 118 59 c147 74 417 192 525 230
423 151 530 185 792 249 219 54 643 142 807 167 367 56 647 90 1018 124 336
31 337 31 853 38 l487 6 1 86 c1 47 2 1878 3 4069 1 3131 -1 3985 -10 3993
-13 10 -904 5 -969 -5 -16 -3 -142 -12 -280 -21 -228 -15 -368 -28 -710 -69
-67 -8 -197 -29 -290 -46 -94 -17 -208 -38 -255 -46 -102 -18 -381 -77 -465
-99 -234 -61 -514 -142 -594 -172 -53 -19 -121 -43 -151 -53 -245 -80 -542
-211 -793 -350 l-79 -43 -36 22 c-58 35 -386 194 -497 241 -457 194 -1062 369
-1605 464 -47 8 -146 26 -220 40 -74 13 -180 29 -235 36 -55 6 -111 13 -125
15 -36 6 -412 43 -500 50 -41 3 -106 7 -145 10 -38 3 -101 7 -140 10 -325 25
-1105 34 -1105 13z m4857 -2463 c361 -47 722 -196 1033 -429 146 -109 340
-308 448 -461 302 -427 442 -962 387 -1480 -24 -225 -103 -503 -205 -720 -107
-228 -320 -498 -544 -691 -150 -129 -435 -298 -621 -367 -109 -41 -234 -75
-440 -119 -41 -9 -143 -13 -315 -12 -239 0 -263 2 -382 27 -179 39 -314 81
-456 143 -390 168 -676 403 -937 769 -48 68 -118 193 -164 293 -171 373 -232
764 -182 1152 42 317 115 546 263 815 92 167 209 319 367 476 267 266 556 432
946 544 246 70 545 93 802 60z"/>
<path d="M9367 11939 c-59 -20 -110 -68 -142 -134 l-25 -50 0 -1141 c0 -1241
-3 -1184 55 -1260 35 -46 109 -91 171 -105 90 -20 110 -12 479 196 99 56 203
114 230 130 28 15 68 38 90 50 22 13 85 49 140 80 55 32 116 66 135 77 19 11
40 24 45 28 6 4 35 21 65 37 30 16 102 57 160 90 58 33 157 89 220 125 495
278 577 327 613 363 60 60 72 90 72 175 0 129 -42 181 -225 282 -63 35 -182
103 -265 150 -147 84 -620 352 -660 374 -73 39 -310 174 -415 235 -69 39 -150
85 -180 102 -30 16 -113 62 -185 102 -133 75 -244 117 -299 113 -17 -2 -52
-10 -79 -19z"/>
<path d="M4660 14248 c-51 -14 -120 -75 -141 -124 -18 -41 -19 -162 -19 -4138
0 -3756 1 -4098 16 -4136 21 -53 92 -115 149 -129 32 -8 679 -11 2327 -11
l2284 0 88 -90 c216 -221 503 -343 836 -357 276 -12 545 66 765 222 33 23 98
82 145 131 l85 89 2310 5 2310 5 46 27 c48 28 92 78 109 124 13 34 14 8212 1
8246 -13 35 -91 109 -136 129 -36 17 -70 19 -323 19 l-282 0 2 -212 3 -213
156 -3 157 -2 6 -33 c8 -39 7 -7622 -1 -7643 -4 -12 -316 -14 -2267 -14 -1243
0 -2271 -3 -2283 -6 -14 -4 -31 -24 -45 -53 -32 -65 -169 -204 -252 -256 -159
-99 -282 -136 -452 -136 -303 1 -554 130 -706 363 -33 49 -59 79 -74 82 -13 4
-1042 6 -2286 6 l-2263 -1 -3 3823 c-1 2103 0 3833 3 3846 5 22 8 22 159 22
117 0 155 3 159 13 9 24 4 392 -6 405 -12 15 -523 16 -577 0z"/>
</g>
</svg>
